<?xml version="1.0" encoding="UTF-8"?>
<!DOCTYPE svg PUBLIC "-//W3C//DTD SVG 1.1//EN" "http://www.w3.org/Graphics/SVG/1.1/DTD/svg11.dtd">
<svg xmlns="http://www.w3.org/2000/svg" version="1.1" width="96px" height="96px" style="shape-rendering:geometricPrecision; text-rendering:geometricPrecision; image-rendering:optimizeQuality; fill-rule:evenodd; clip-rule:evenodd" xmlns:xlink="http://www.w3.org/1999/xlink">
<g><path style="opacity:0.996" fill="#6b7680" d="M 89.5,77.5 C 61.5,77.5 33.5,77.5 5.5,77.5C 5.33338,58.4971 5.50005,39.4971 6,20.5C 8.3806,19.565 10.8806,19.2317 13.5,19.5C 18.1667,19.5 22.8333,19.5 27.5,19.5C 31.5287,18.3105 34.5287,15.8105 36.5,12C 43.8333,11.3333 51.1667,11.3333 58.5,12C 60.4049,13.8153 62.0716,15.8153 63.5,18C 71.7573,19.24 80.0906,19.9067 88.5,20C 89.4928,39.0904 89.8261,58.2571 89.5,77.5 Z"/></g>
<g><path style="opacity:0.994" fill="#0076d7" d="M 27.5,19.5 C 22.8333,19.5 18.1667,19.5 13.5,19.5C 13.5,18.1667 13.5,16.8333 13.5,15.5C 18.1667,15.5 22.8333,15.5 27.5,15.5C 27.5,16.8333 27.5,18.1667 27.5,19.5 Z"/></g>
<g><path style="opacity:1" fill="#f9f9fa" d="M 41.5,27.5 C 60.8432,26.3441 70.0099,35.3441 69,54.5C 62.5324,70.4799 51.3657,74.9799 35.5,68C 23.8568,57.9372 22.5235,46.6039 31.5,34C 34.7278,31.5603 38.0611,29.3936 41.5,27.5 Z"/></g>
<g><path style="opacity:1" fill="#e7ebed" d="M 75.5,27.5 C 81.4877,27.664 82.821,30.164 79.5,35C 73.4034,35.1475 72.0701,32.6475 75.5,27.5 Z"/></g>
<g><path style="opacity:1" fill="#b48ef4" d="M 42.5,34.5 C 43.8333,34.5 45.1667,34.5 46.5,34.5C 48.7,46.3007 44.0333,50.9673 32.5,48.5C 32.5,47.1667 32.5,45.8333 32.5,44.5C 34.1667,39.5 37.5,36.1667 42.5,34.5 Z"/></g>
<g><path style="opacity:1" fill="#9595f2" d="M 42.5,34.5 C 46.0326,33.2854 49.6992,33.2854 53.5,34.5C 55.6419,50.3587 48.6419,57.3587 32.5,55.5C 31.2134,51.7316 31.2134,48.0649 32.5,44.5C 32.5,45.8333 32.5,47.1667 32.5,48.5C 44.0333,50.9673 48.7,46.3007 46.5,34.5C 45.1667,34.5 43.8333,34.5 42.5,34.5 Z"/></g>
<g><path style="opacity:1" fill="#779cf0" d="M 53.5,34.5 C 56.1092,35.4431 58.1092,37.1097 59.5,39.5C 59.1593,53.1765 52.1593,60.8432 38.5,62.5C 35.7805,60.7807 33.7805,58.4474 32.5,55.5C 48.6419,57.3587 55.6419,50.3587 53.5,34.5 Z"/></g>
<g><path style="opacity:1" fill="#57a6ed" d="M 59.5,39.5 C 64.2723,45.3205 64.7723,51.6539 61,58.5C 54.4834,66.0946 46.9834,67.428 38.5,62.5C 52.1593,60.8432 59.1593,53.1765 59.5,39.5 Z"/></g>
<g><path style="opacity:0.988" fill="#45494d" d="M 5.5,77.5 C 33.5,77.5 61.5,77.5 89.5,77.5C 89.67,78.8221 89.3366,79.9887 88.5,81C 61.1667,81.6667 33.8333,81.6667 6.5,81C 5.66337,79.9887 5.33003,78.8221 5.5,77.5 Z"/></g>
</svg>
