<?xml version="1.0" encoding="UTF-8"?>
<!DOCTYPE svg PUBLIC "-//W3C//DTD SVG 1.1//EN" "http://www.w3.org/Graphics/SVG/1.1/DTD/svg11.dtd">
<svg xmlns="http://www.w3.org/2000/svg" version="1.1" width="96px" height="96px" style="shape-rendering:geometricPrecision; text-rendering:geometricPrecision; image-rendering:optimizeQuality; fill-rule:evenodd; clip-rule:evenodd" xmlns:xlink="http://www.w3.org/1999/xlink">
<g><path style="opacity:1" fill="#cececd" d="M 20.5,14.5 C 25.0628,16.3954 28.7295,19.3954 31.5,23.5C 29.8333,27.1667 27.1667,29.8333 23.5,31.5C 21.2471,27.8281 19.9138,23.8281 19.5,19.5C 19.2155,17.5853 19.5489,15.9187 20.5,14.5 Z"/></g>
<g><path style="opacity:1" fill="#cecdcd" d="M 74.5,14.5 C 75.4511,15.9187 75.7845,17.5853 75.5,19.5C 75.2634,22.6473 74.4301,25.6473 73,28.5C 72.6232,29.9423 71.7899,30.9423 70.5,31.5C 67.4275,29.4309 65.0941,26.7642 63.5,23.5C 66.2705,19.3954 69.9372,16.3954 74.5,14.5 Z"/></g>
<g><path style="opacity:0.999" fill="#eb8701" d="M 39.5,21.5 C 44.8333,21.5 50.1667,21.5 55.5,21.5C 57.9925,22.7736 60.6592,23.4403 63.5,23.5C 65.0941,26.7642 67.4275,29.4309 70.5,31.5C 70.8588,33.371 71.8588,34.871 73.5,36C 59.3513,38.7994 52.8513,47.2994 54,61.5C 54.3736,63.4913 55.207,65.158 56.5,66.5C 56.4431,67.609 56.1098,68.609 55.5,69.5C 50.1667,69.5 44.8333,69.5 39.5,69.5C 39.1667,68.8333 38.8333,68.1667 38.5,67.5C 44.6542,50.9868 38.9875,40.4868 21.5,36C 23.0368,34.8904 23.7035,33.3904 23.5,31.5C 27.1667,29.8333 29.8333,27.1667 31.5,23.5C 34.2666,23.1417 36.9333,22.475 39.5,21.5 Z"/></g>
<g><path style="opacity:1" fill="#e36402" d="M 39.5,21.5 C 36.9333,22.475 34.2666,23.1417 31.5,23.5C 28.7295,19.3954 25.0628,16.3954 20.5,14.5C 20.44,13.9569 20.1067,13.6236 19.5,13.5C 18.2072,15.6365 18.2072,17.6365 19.5,19.5C 19.9138,23.8281 21.2471,27.8281 23.5,31.5C 23.7035,33.3904 23.0368,34.8904 21.5,36C 38.9875,40.4868 44.6542,50.9868 38.5,67.5C 32.642,58.3186 24.3086,54.9853 13.5,57.5C 12.6091,55.3911 11.4424,53.3911 10,51.5C 9.33333,50.1667 9.33333,48.8333 10,47.5C 13.5174,44.2835 16.6841,40.7835 19.5,37C 11.8515,28.2442 9.35149,18.0775 12,6.5C 24.1462,5.82636 33.3128,10.8264 39.5,21.5 Z"/></g>
<g><path style="opacity:1" fill="#da925c" d="M 20.5,14.5 C 19.5489,15.9187 19.2155,17.5853 19.5,19.5C 18.2072,17.6365 18.2072,15.6365 19.5,13.5C 20.1067,13.6236 20.44,13.9569 20.5,14.5 Z"/></g>
<g><path style="opacity:1" fill="#e36402" d="M 81.5,57.5 C 70.9961,54.7768 62.6627,57.7768 56.5,66.5C 55.207,65.158 54.3736,63.4913 54,61.5C 52.8513,47.2994 59.3513,38.7994 73.5,36C 71.8588,34.871 70.8588,33.371 70.5,31.5C 71.7899,30.9423 72.6232,29.9423 73,28.5C 74.4301,25.6473 75.2634,22.6473 75.5,19.5C 76.7928,17.6365 76.7928,15.6365 75.5,13.5C 74.8933,13.6236 74.56,13.9569 74.5,14.5C 69.9372,16.3954 66.2705,19.3954 63.5,23.5C 60.6592,23.4403 57.9925,22.7736 55.5,21.5C 61.6708,10.834 70.8375,5.83396 83,6.5C 84.102,14.6791 83.4354,22.6791 81,30.5C 79.5422,32.96 77.7089,35.1266 75.5,37C 78.3159,40.7835 81.4826,44.2835 85,47.5C 85.6667,48.8333 85.6667,50.1667 85,51.5C 83.5576,53.3911 82.3909,55.3911 81.5,57.5 Z"/></g>
<g><path style="opacity:1" fill="#db9059" d="M 74.5,14.5 C 74.56,13.9569 74.8933,13.6236 75.5,13.5C 76.7928,15.6365 76.7928,17.6365 75.5,19.5C 75.7845,17.5853 75.4511,15.9187 74.5,14.5 Z"/></g>
<g><path style="opacity:1" fill="#652814" d="M 29.5,50.5 C 31.6282,49.3709 33.9615,49.2042 36.5,50C 38.5,54.3333 37.1667,56 32.5,55C 31.6006,53.3484 30.6006,51.8484 29.5,50.5 Z"/></g>
<g><path style="opacity:1" fill="#632714" d="M 58.5,49.5 C 60.8568,49.3367 63.1902,49.5034 65.5,50C 64.6535,52.8465 62.8202,54.6798 60,55.5C 57.3266,54.1417 56.8266,52.1417 58.5,49.5 Z"/></g>
<g><path style="opacity:0.971" fill="#cccfd2" d="M 38.5,67.5 C 38.8333,68.1667 39.1667,68.8333 39.5,69.5C 41.0684,76.9511 45.4017,79.1178 52.5,76C 54.1712,74.1575 55.1712,71.9908 55.5,69.5C 56.1098,68.609 56.4431,67.609 56.5,66.5C 62.6627,57.7768 70.9961,54.7768 81.5,57.5C 83.7029,58.0516 84.5362,59.3849 84,61.5C 79.2041,71.2917 71.3708,76.7917 60.5,78C 57.7774,81.0568 55.444,84.3901 53.5,88C 49.5,90 45.5,90 41.5,88C 38.8457,81.9866 34.5123,78.3199 28.5,77C 20.2145,73.7135 14.2145,68.0468 10.5,60C 11.1301,58.6898 12.1301,57.8565 13.5,57.5C 24.3086,54.9853 32.642,58.3186 38.5,67.5 Z"/></g>
<g><path style="opacity:1" fill="#5f291a" d="M 39.5,69.5 C 44.8333,69.5 50.1667,69.5 55.5,69.5C 55.1712,71.9908 54.1712,74.1575 52.5,76C 45.4017,79.1178 41.0684,76.9511 39.5,69.5 Z"/></g>
</svg>
