<?xml version="1.0" encoding="UTF-8"?>
<!DOCTYPE svg PUBLIC "-//W3C//DTD SVG 1.1//EN" "http://www.w3.org/Graphics/SVG/1.1/DTD/svg11.dtd">
<svg xmlns="http://www.w3.org/2000/svg" version="1.1" width="64px" height="64px" style="shape-rendering:geometricPrecision; text-rendering:geometricPrecision; image-rendering:optimizeQuality; fill-rule:evenodd; clip-rule:evenodd" xmlns:xlink="http://www.w3.org/1999/xlink">
<g><path style="opacity:0.757" fill="#0b345c" d="M 18.5,12.5 C 19.0516,8.94686 21.0516,6.61352 24.5,5.5C 25.1668,2.16666 27.1668,0.833326 30.5,1.5C 30.5,4.83333 28.8333,6.5 25.5,6.5C 25.0268,10.6383 22.6935,12.6383 18.5,12.5 Z"/></g>
<g><path style="opacity:0.805" fill="#083762" d="M 36.5,5.5 C 37.5,5.5 38.5,5.5 39.5,5.5C 38.37,9.31285 36.0367,12.3129 32.5,14.5C 31.5,14.1667 30.8333,13.5 30.5,12.5C 32.5227,10.1472 34.5227,7.81382 36.5,5.5 Z"/></g>
<g><path style="opacity:0.78" fill="#093860" d="M 18.5,12.5 C 18.4277,16.7233 16.4277,19.2233 12.5,20C 11.4829,18.9505 11.3162,17.7839 12,16.5C 13.5707,14.0771 15.7374,12.7438 18.5,12.5 Z"/></g>
<g><path style="opacity:0.84" fill="#083663" d="M 27.5,14.5 C 28.5,14.5 29.5,14.5 30.5,14.5C 28.6898,18.9925 25.6898,22.6592 21.5,25.5C 19.8987,24.9653 19.3987,23.9653 20,22.5C 22.705,19.9638 25.205,17.2971 27.5,14.5 Z"/></g>
<g><path style="opacity:0.915" fill="#083964" d="M -0.5,29.5 C -0.5,28.8333 -0.5,28.1667 -0.5,27.5C 3.32814,26.7932 4.9948,24.4599 4.5,20.5C 5.87344,20.3433 7.20677,20.51 8.5,21C 9.39925,22.2362 10.5659,23.0696 12,23.5C 13.4162,22.4267 14.7496,22.4267 16,23.5C 16.5356,25.5672 16.0356,27.4006 14.5,29C 15.8613,30.5843 16.528,32.4176 16.5,34.5C 12.7895,33.972 9.62285,34.972 7,37.5C 6.22797,37.3552 5.5613,37.0219 5,36.5C 4.82675,32.8375 2.99342,30.5041 -0.5,29.5 Z"/></g>
<g><path style="opacity:1" fill="#00a3df" d="M 7.5,25.5 C 9.08584,26.1481 10.7525,26.6481 12.5,27C 11.1667,28.3333 11.1667,29.6667 12.5,31C 10.8988,31.2734 9.39881,31.7734 8,32.5C 7.5,30.6667 6.33333,29.5 4.5,29C 6.4257,28.5776 7.4257,27.4109 7.5,25.5 Z"/></g>
<g><path style="opacity:0.901" fill="#063863" d="M 20.5,44.5 C 20.1667,45.8333 19.8333,45.8333 19.5,44.5C 18.5876,43.2618 18.4209,41.9285 19,40.5C 22.8333,36.6667 26.6667,32.8333 30.5,29C 31.448,28.5172 32.448,28.3505 33.5,28.5C 33.3505,27.448 33.5172,26.448 34,25.5C 37.1667,22.3333 40.3333,19.1667 43.5,16C 46.1341,15.0752 47.3008,15.9085 47,18.5C 38.2983,27.369 29.465,36.0356 20.5,44.5 Z"/></g>
<g><path style="opacity:0.807" fill="#0a345b" d="M 44.5,34.5 C 45.0325,30.8056 47.0325,28.639 50.5,28C 50.9574,28.414 51.2907,28.914 51.5,29.5C 50.5268,33.1477 48.1935,34.8143 44.5,34.5 Z"/></g>
<g><path style="opacity:0.806" fill="#083660" d="M 44.5,34.5 C 42.5945,39.4082 39.2612,43.0748 34.5,45.5C 34.5858,44.5041 34.2524,43.6708 33.5,43C 36.5214,39.1228 40.188,36.2895 44.5,34.5 Z"/></g>
<g><path style="opacity:0.842" fill="#073862" d="M 63.5,29.5 C 63.5,30.5 63.5,31.5 63.5,32.5C 61.3702,34.1271 59.3702,35.9604 57.5,38C 56.552,38.4828 55.552,38.6495 54.5,38.5C 53.2214,42.302 50.8881,45.4687 47.5,48C 46.2068,48.49 44.8734,48.6567 43.5,48.5C 44.7786,44.698 47.1119,41.5313 50.5,39C 51.448,38.5172 52.448,38.3505 53.5,38.5C 54.9509,33.3813 58.2842,30.3813 63.5,29.5 Z"/></g>
<g><path style="opacity:0.916" fill="#093863" d="M 19.5,44.5 C 19.8333,45.8333 20.1667,45.8333 20.5,44.5C 21.4778,44.811 22.1445,45.4777 22.5,46.5C 21.696,47.9411 21.0294,49.4411 20.5,51C 21.5038,52.7983 22.0038,54.6316 22,56.5C 19.9581,56.8179 17.7914,56.9846 15.5,57C 11.7002,60.732 9.53357,59.8987 9,54.5C 3.25185,52.3463 3.08518,50.0129 8.5,47.5C 9.92532,40.427 12.7587,39.7604 17,45.5C 17.6708,44.7476 18.5041,44.4142 19.5,44.5 Z"/></g>
<g><path style="opacity:0.897" fill="#083965" d="M 34.5,45.5 C 34.6107,46.1174 34.944,46.6174 35.5,47C 37.4727,47.4955 39.4727,47.6621 41.5,47.5C 41.528,49.5824 40.8613,51.4157 39.5,53C 41.0163,54.897 41.683,57.0637 41.5,59.5C 39.9397,59.4809 38.4397,59.1476 37,58.5C 35.3333,59.5 33.6667,60.5 32,61.5C 30.4051,58.9041 28.4051,56.5708 26,54.5C 25.2586,51.8882 26.2586,50.2215 29,49.5C 28.8724,45.1046 30.7057,43.7713 34.5,45.5 Z"/></g>
<g><path style="opacity:1" fill="#04dac5" d="M 12.5,46.5 C 13.8195,47.9418 15.4862,48.6085 17.5,48.5C 17.5,50.1667 17.5,51.8333 17.5,53.5C 15.6096,53.2965 14.1096,53.9632 13,55.5C 12.8898,53.1517 11.7231,51.6517 9.5,51C 11.4386,50.0922 12.4386,48.5922 12.5,46.5 Z"/></g>
<g><path style="opacity:1" fill="#00a2df" d="M 32.5,49.5 C 34.0858,50.1481 35.7525,50.6481 37.5,51C 36.1667,52.3333 36.1667,53.6667 37.5,55C 35.8988,55.2734 34.3988,55.7734 33,56.5C 32.5348,55.0692 31.7014,53.9025 30.5,53C 31.8228,52.1841 32.4894,51.0174 32.5,49.5 Z"/></g>
</svg>
